999
CC0 1.0 Universal (Public Domain Dedication)
999
Author: Croft Swonyoung
999
To the extent possible under law, the author has waived all copyright and
999
related or neighbouring rights to this file. No warranty.
999
https://creativecommons.org/publicdomain/zero/1.0/
999
Part of the ZnO nanovoid process document set.
0
SECTION
2
HEADER
0
ENDSEC
0
SECTION
2
TABLES
0
TABLE
2
LAYER
70
6
0
LAYER
2
SHEET
70
0
62
8
6
CONTINUOUS
0
LAYER
2
CUT
70
0
62
5
6
CONTINUOUS
0
LAYER
2
WINDOW
70
0
62
5
6
CONTINUOUS
0
LAYER
2
GROOVE
70
0
62
1
6
CONTINUOUS
0
LAYER
2
POCKET
70
0
62
3
6
CONTINUOUS
0
LAYER
2
DRILL
70
0
62
2
6
CONTINUOUS
0
ENDTAB
0
ENDSEC
0
SECTION
2
ENTITIES
0
LINE
8
SHEET
10
0.0000
20
0.0000
30
0.0
11
300.0000
21
0.0000
31
0.0
0
LINE
8
SHEET
10
300.0000
20
0.0000
30
0.0
11
300.0000
21
287.0000
31
0.0
0
LINE
8
SHEET
10
300.0000
20
287.0000
30
0.0
11
0.0000
21
287.0000
31
0.0
0
LINE
8
SHEET
10
0.0000
20
287.0000
30
0.0
11
0.0000
21
0.0000
31
0.0
0
LINE
8
CUT
10
4.0000
20
4.0000
30
0.0
11
144.0000
21
4.0000
31
0.0
0
LINE
8
CUT
10
144.0000
20
4.0000
30
0.0
11
144.0000
21
170.0000
31
0.0
0
LINE
8
CUT
10
144.0000
20
170.0000
30
0.0
11
4.0000
21
170.0000
31
0.0
0
LINE
8
CUT
10
4.0000
20
170.0000
30
0.0
11
4.0000
21
4.0000
31
0.0
0
LINE
8
GROOVE
10
30.5000
20
31.0000
30
0.0
11
117.5000
21
31.0000
31
0.0
0
LINE
8
GROOVE
10
117.5000
20
31.0000
30
0.0
11
117.5000
21
143.0000
31
0.0
0
LINE
8
GROOVE
10
117.5000
20
143.0000
30
0.0
11
30.5000
21
143.0000
31
0.0
0
LINE
8
GROOVE
10
30.5000
20
143.0000
30
0.0
11
30.5000
21
31.0000
31
0.0
0
LINE
8
POCKET
10
24.0000
20
24.5000
30
0.0
11
124.0000
21
24.5000
31
0.0
0
LINE
8
POCKET
10
124.0000
20
24.5000
30
0.0
11
124.0000
21
149.5000
31
0.0
0
LINE
8
POCKET
10
124.0000
20
149.5000
30
0.0
11
24.0000
21
149.5000
31
0.0
0
LINE
8
POCKET
10
24.0000
20
149.5000
30
0.0
11
24.0000
21
24.5000
31
0.0
0
CIRCLE
8
DRILL
10
14.0000
20
14.0000
30
0.0
40
2.1500
0
CIRCLE
8
DRILL
10
134.0000
20
14.0000
30
0.0
40
2.1500
0
CIRCLE
8
DRILL
10
14.0000
20
160.0000
30
0.0
40
2.1500
0
CIRCLE
8
DRILL
10
134.0000
20
160.0000
30
0.0
40
2.1500
0
CIRCLE
8
DRILL
10
14.0000
20
62.6700
30
0.0
40
2.1500
0
CIRCLE
8
DRILL
10
14.0000
20
111.3300
30
0.0
40
2.1500
0
CIRCLE
8
DRILL
10
134.0000
20
62.6700
30
0.0
40
2.1500
0
CIRCLE
8
DRILL
10
134.0000
20
111.3300
30
0.0
40
2.1500
0
CIRCLE
8
DRILL
10
74.0000
20
14.0000
30
0.0
40
2.1500
0
CIRCLE
8
DRILL
10
74.0000
20
160.0000
30
0.0
40
2.1500
0
LINE
8
CUT
10
156.0000
20
4.0000
30
0.0
11
296.0000
21
4.0000
31
0.0
0
LINE
8
CUT
10
296.0000
20
4.0000
30
0.0
11
296.0000
21
170.0000
31
0.0
0
LINE
8
CUT
10
296.0000
20
170.0000
30
0.0
11
156.0000
21
170.0000
31
0.0
0
LINE
8
CUT
10
156.0000
20
170.0000
30
0.0
11
156.0000
21
4.0000
31
0.0
0
LINE
8
GROOVE
10
182.5000
20
31.0000
30
0.0
11
269.5000
21
31.0000
31
0.0
0
LINE
8
GROOVE
10
269.5000
20
31.0000
30
0.0
11
269.5000
21
143.0000
31
0.0
0
LINE
8
GROOVE
10
269.5000
20
143.0000
30
0.0
11
182.5000
21
143.0000
31
0.0
0
LINE
8
GROOVE
10
182.5000
20
143.0000
30
0.0
11
182.5000
21
31.0000
31
0.0
0
LINE
8
POCKET
10
176.0000
20
24.5000
30
0.0
11
276.0000
21
24.5000
31
0.0
0
LINE
8
POCKET
10
276.0000
20
24.5000
30
0.0
11
276.0000
21
149.5000
31
0.0
0
LINE
8
POCKET
10
276.0000
20
149.5000
30
0.0
11
176.0000
21
149.5000
31
0.0
0
LINE
8
POCKET
10
176.0000
20
149.5000
30
0.0
11
176.0000
21
24.5000
31
0.0
0
CIRCLE
8
DRILL
10
166.0000
20
14.0000
30
0.0
40
2.1500
0
CIRCLE
8
DRILL
10
286.0000
20
14.0000
30
0.0
40
2.1500
0
CIRCLE
8
DRILL
10
166.0000
20
160.0000
30
0.0
40
2.1500
0
CIRCLE
8
DRILL
10
286.0000
20
160.0000
30
0.0
40
2.1500
0
CIRCLE
8
DRILL
10
166.0000
20
62.6700
30
0.0
40
2.1500
0
CIRCLE
8
DRILL
10
166.0000
20
111.3300
30
0.0
40
2.1500
0
CIRCLE
8
DRILL
10
286.0000
20
62.6700
30
0.0
40
2.1500
0
CIRCLE
8
DRILL
10
286.0000
20
111.3300
30
0.0
40
2.1500
0
CIRCLE
8
DRILL
10
226.0000
20
14.0000
30
0.0
40
2.1500
0
CIRCLE
8
DRILL
10
226.0000
20
160.0000
30
0.0
40
2.1500
0
ENDSEC
0
EOF
