999
CC0 1.0 Universal (Public Domain Dedication)
999
Author: Croft Swonyoung
999
To the extent possible under law, the author has waived all copyright and
999
related or neighbouring rights to this file. No warranty.
999
https://creativecommons.org/publicdomain/zero/1.0/
999
Part of the ZnO nanovoid process document set.
999
ZnO round carrier set - PVDF 1/4in: immersion & seeding.
999
Bed A: window plate + handle.  Bed B: back/mask plate.
999
1 plate per 300x287 bed (OD156 coupon > half-bed).
0
SECTION
2
HEADER
0
ENDSEC
0
SECTION
2
TABLES
0
TABLE
2
LAYER
70
8
0
LAYER
2
SHEET
70
0
62
8
6
CONTINUOUS
0
LAYER
2
CUT
70
0
62
5
6
CONTINUOUS
0
LAYER
2
WINDOW
70
0
62
4
6
CONTINUOUS
0
LAYER
2
GROOVE
70
0
62
1
6
CONTINUOUS
0
LAYER
2
POCKET
70
0
62
3
6
CONTINUOUS
0
LAYER
2
DRILL
70
0
62
2
6
CONTINUOUS
0
LAYER
2
TAP
70
0
62
6
6
CONTINUOUS
0
LAYER
2
DOWEL
70
0
62
7
6
CONTINUOUS
0
ENDTAB
0
ENDSEC
0
SECTION
2
ENTITIES
0
LINE
8
SHEET
10
0.0000
20
0.0000
30
0.0
11
300.0000
21
0.0000
31
0.0
0
LINE
8
SHEET
10
300.0000
20
0.0000
30
0.0
11
300.0000
21
287.0000
31
0.0
0
LINE
8
SHEET
10
300.0000
20
287.0000
30
0.0
11
0.0000
21
287.0000
31
0.0
0
LINE
8
SHEET
10
0.0000
20
287.0000
30
0.0
11
0.0000
21
0.0000
31
0.0
0
CIRCLE
8
CUT
10
150.0000
20
143.5000
30
0.0
40
95.0000
0
CIRCLE
8
WINDOW
10
150.0000
20
143.5000
30
0.0
40
65.0000
0
CIRCLE
8
GROOVE
10
150.0000
20
143.5000
30
0.0
40
71.5000
0
CIRCLE
8
DRILL
10
234.0355
20
166.0173
30
0.0
40
2.1500
0
CIRCLE
8
DRILL
10
211.5183
20
205.0183
30
0.0
40
2.1500
0
CIRCLE
8
DRILL
10
172.5173
20
227.5355
30
0.0
40
2.1500
0
CIRCLE
8
DRILL
10
127.4827
20
227.5355
30
0.0
40
2.1500
0
CIRCLE
8
DRILL
10
88.4817
20
205.0183
30
0.0
40
2.1500
0
CIRCLE
8
DRILL
10
65.9645
20
166.0173
30
0.0
40
2.1500
0
CIRCLE
8
DRILL
10
65.9645
20
120.9827
30
0.0
40
2.1500
0
CIRCLE
8
DRILL
10
88.4817
20
81.9817
30
0.0
40
2.1500
0
CIRCLE
8
DRILL
10
127.4827
20
59.4645
30
0.0
40
2.1500
0
CIRCLE
8
DRILL
10
172.5173
20
59.4645
30
0.0
40
2.1500
0
CIRCLE
8
DRILL
10
211.5183
20
81.9817
30
0.0
40
2.1500
0
CIRCLE
8
DRILL
10
234.0355
20
120.9827
30
0.0
40
2.1500
0
LINE
8
CUT
10
50.0000
20
250.0000
30
0.0
11
250.0000
21
250.0000
31
0.0
0
LINE
8
CUT
10
250.0000
20
250.0000
30
0.0
11
250.0000
21
275.0000
31
0.0
0
LINE
8
CUT
10
250.0000
20
275.0000
30
0.0
11
50.0000
21
275.0000
31
0.0
0
LINE
8
CUT
10
50.0000
20
275.0000
30
0.0
11
50.0000
21
250.0000
31
0.0
0
CIRCLE
8
DRILL
10
60.0000
20
262.5000
30
0.0
40
2.1500
0
CIRCLE
8
DRILL
10
90.0000
20
262.5000
30
0.0
40
2.1500
0
LINE
8
SHEET
10
330.0000
20
0.0000
30
0.0
11
630.0000
21
0.0000
31
0.0
0
LINE
8
SHEET
10
630.0000
20
0.0000
30
0.0
11
630.0000
21
287.0000
31
0.0
0
LINE
8
SHEET
10
630.0000
20
287.0000
30
0.0
11
330.0000
21
287.0000
31
0.0
0
LINE
8
SHEET
10
330.0000
20
287.0000
30
0.0
11
330.0000
21
0.0000
31
0.0
0
CIRCLE
8
CUT
10
480.0000
20
143.5000
30
0.0
40
95.0000
0
CIRCLE
8
POCKET
10
480.0000
20
143.5000
30
0.0
40
78.1500
0
CIRCLE
8
DRILL
10
564.0355
20
166.0173
30
0.0
40
1.6500
0
CIRCLE
8
DRILL
10
541.5183
20
205.0183
30
0.0
40
1.6500
0
CIRCLE
8
DRILL
10
502.5173
20
227.5355
30
0.0
40
1.6500
0
CIRCLE
8
DRILL
10
457.4827
20
227.5355
30
0.0
40
1.6500
0
CIRCLE
8
DRILL
10
418.4817
20
205.0183
30
0.0
40
1.6500
0
CIRCLE
8
DRILL
10
395.9645
20
166.0173
30
0.0
40
1.6500
0
CIRCLE
8
DRILL
10
395.9645
20
120.9827
30
0.0
40
1.6500
0
CIRCLE
8
DRILL
10
418.4817
20
81.9817
30
0.0
40
1.6500
0
CIRCLE
8
DRILL
10
457.4827
20
59.4645
30
0.0
40
1.6500
0
CIRCLE
8
DRILL
10
502.5173
20
59.4645
30
0.0
40
1.6500
0
CIRCLE
8
DRILL
10
541.5183
20
81.9817
30
0.0
40
1.6500
0
CIRCLE
8
DRILL
10
564.0355
20
120.9827
30
0.0
40
1.6500
0
CIRCLE
8
DRILL
10
465.0000
20
217.5000
30
0.0
40
1.6500
0
CIRCLE
8
DRILL
10
495.0000
20
217.5000
30
0.0
40
1.6500
0
ENDSEC
0
EOF
