<svg xmlns="http://www.w3.org/2000/svg" viewBox="-15.0 -15.0 1060.0 630.0" style="width:100%;height:auto;max-width:760px;font-family:sans-serif" role="img" aria-label="ZnO immersion &amp; seeding carrier (300 mm) — 1/4 in PVDF — to-scale plan (generated from 300mm-datum-reference.md)">
<title>ZnO immersion &amp; seeding carrier (300 mm) — 1/4 in PVDF</title>
<rect x="0.00" y="0.00" width="500.00" height="600.00" fill="none" stroke="#b0b0b0" stroke-width="1.51" stroke-dasharray="9.1,6.1"/>
<circle cx="250.000" cy="300.000" r="175.000" fill="none" stroke="#0050c8" stroke-width="1.51"/>
<circle cx="250.000" cy="300.000" r="140.000" fill="none" stroke="#00a0a0" stroke-width="1.51"/>
<circle cx="250.000" cy="300.000" r="148.000" fill="none" stroke="#c00000" stroke-width="1.51"/>
<circle cx="411.830" cy="267.810" r="2.150" fill="none" stroke="#d07000" stroke-width="1.51"/>
<circle cx="387.192" cy="208.331" r="2.150" fill="none" stroke="#d07000" stroke-width="1.51"/>
<circle cx="341.669" cy="162.808" r="2.150" fill="none" stroke="#d07000" stroke-width="1.51"/>
<circle cx="282.190" cy="138.170" r="2.150" fill="none" stroke="#d07000" stroke-width="1.51"/>
<circle cx="217.810" cy="138.170" r="2.150" fill="none" stroke="#d07000" stroke-width="1.51"/>
<circle cx="158.331" cy="162.808" r="2.150" fill="none" stroke="#d07000" stroke-width="1.51"/>
<circle cx="112.808" cy="208.331" r="2.150" fill="none" stroke="#d07000" stroke-width="1.51"/>
<circle cx="88.170" cy="267.810" r="2.150" fill="none" stroke="#d07000" stroke-width="1.51"/>
<circle cx="88.170" cy="332.190" r="2.150" fill="none" stroke="#d07000" stroke-width="1.51"/>
<circle cx="112.808" cy="391.669" r="2.150" fill="none" stroke="#d07000" stroke-width="1.51"/>
<circle cx="158.331" cy="437.192" r="2.150" fill="none" stroke="#d07000" stroke-width="1.51"/>
<circle cx="217.810" cy="461.830" r="2.150" fill="none" stroke="#d07000" stroke-width="1.51"/>
<circle cx="282.190" cy="461.830" r="2.150" fill="none" stroke="#d07000" stroke-width="1.51"/>
<circle cx="341.669" cy="437.192" r="2.150" fill="none" stroke="#d07000" stroke-width="1.51"/>
<circle cx="387.192" cy="391.669" r="2.150" fill="none" stroke="#d07000" stroke-width="1.51"/>
<circle cx="411.830" cy="332.190" r="2.150" fill="none" stroke="#d07000" stroke-width="1.51"/>
<line x1="60.000" y1="120.000" x2="440.000" y2="120.000" stroke="#0050c8" stroke-width="1.51"/>
<line x1="440.000" y1="120.000" x2="440.000" y2="95.000" stroke="#0050c8" stroke-width="1.51"/>
<line x1="440.000" y1="95.000" x2="60.000" y2="95.000" stroke="#0050c8" stroke-width="1.51"/>
<line x1="60.000" y1="95.000" x2="60.000" y2="120.000" stroke="#0050c8" stroke-width="1.51"/>
<rect x="530.00" y="0.00" width="500.00" height="600.00" fill="none" stroke="#b0b0b0" stroke-width="1.51" stroke-dasharray="9.1,6.1"/>
<circle cx="780.000" cy="300.000" r="175.000" fill="none" stroke="#0050c8" stroke-width="1.51"/>
<circle cx="780.000" cy="300.000" r="153.150" fill="none" stroke="#008000" stroke-width="1.51"/>
<circle cx="941.830" cy="267.810" r="1.650" fill="none" stroke="#d07000" stroke-width="1.51"/>
<circle cx="917.192" cy="208.331" r="1.650" fill="none" stroke="#d07000" stroke-width="1.51"/>
<circle cx="871.669" cy="162.808" r="1.650" fill="none" stroke="#d07000" stroke-width="1.51"/>
<circle cx="812.190" cy="138.170" r="1.650" fill="none" stroke="#d07000" stroke-width="1.51"/>
<circle cx="747.810" cy="138.170" r="1.650" fill="none" stroke="#d07000" stroke-width="1.51"/>
<circle cx="688.331" cy="162.808" r="1.650" fill="none" stroke="#d07000" stroke-width="1.51"/>
<circle cx="642.808" cy="208.331" r="1.650" fill="none" stroke="#d07000" stroke-width="1.51"/>
<circle cx="618.170" cy="267.810" r="1.650" fill="none" stroke="#d07000" stroke-width="1.51"/>
<circle cx="618.170" cy="332.190" r="1.650" fill="none" stroke="#d07000" stroke-width="1.51"/>
<circle cx="642.808" cy="391.669" r="1.650" fill="none" stroke="#d07000" stroke-width="1.51"/>
<circle cx="688.331" cy="437.192" r="1.650" fill="none" stroke="#d07000" stroke-width="1.51"/>
<circle cx="747.810" cy="461.830" r="1.650" fill="none" stroke="#d07000" stroke-width="1.51"/>
<circle cx="812.190" cy="461.830" r="1.650" fill="none" stroke="#d07000" stroke-width="1.51"/>
<circle cx="871.669" cy="437.192" r="1.650" fill="none" stroke="#d07000" stroke-width="1.51"/>
<circle cx="917.192" cy="391.669" r="1.650" fill="none" stroke="#d07000" stroke-width="1.51"/>
<circle cx="941.830" cy="332.190" r="1.650" fill="none" stroke="#d07000" stroke-width="1.51"/>
<text x="0.0" y="13.3" font-size="23.6" fill="#222">ZnO immersion &amp; seeding carrier (300 mm) — 1/4 in PVDF</text>
<text x="0.0" y="41.5" font-size="17.0" fill="#555">to-scale (mm) · CUT ⌀350.0 · WINDOW ⌀280.0 · GROOVE ⌀296.0 · POCKET ⌀306.3</text>
</svg>
